<svg version="1.1" id="Layer_1" xmlns="http://www.w3.org/2000/svg" xmlns:xlink="http://www.w3.org/1999/xlink" x="0px" y="0px"
	 width="100%" viewBox="0 0 3840 2160" enable-background="new 0 0 3840 2160" xml:space="preserve">
<path fill="#FFFFFF" opacity="1.000000" stroke="none" 
	d="
M2232.000000,2162.000000 
	C1488.000122,2162.000000 745.000244,2162.000000 2.000299,2162.000000 
	C2.000199,1442.000244 2.000199,722.000549 2.000100,2.000589 
	C1281.999512,2.000393 2561.999023,2.000393 3841.999023,2.000196 
	C3841.999268,721.999329 3841.999268,1441.998657 3841.999512,2161.999023 
	C3305.666748,2162.000000 2769.333252,2162.000000 2232.000000,2162.000000 
M1011.472290,1294.999756 
	C1011.472290,1354.519897 1011.472290,1414.040039 1011.472290,1473.630981 
	C1077.084961,1473.630981 1141.552734,1473.630981 1206.845825,1473.630981 
	C1206.845825,1310.975830 1206.845825,1148.899048 1206.845825,984.804260 
	C1209.930908,988.083374 1211.734009,989.854309 1213.374390,991.764954 
	C1278.056396,1067.099365 1342.880005,1142.313354 1407.183838,1217.969116 
	C1414.762329,1226.885376 1422.207886,1230.731812 1434.017212,1230.588623 
	C1444.415649,1230.462402 1450.901001,1227.205811 1457.502930,1219.456055 
	C1522.110718,1143.613647 1587.100830,1068.097046 1651.996826,992.500366 
	C1653.833984,990.360107 1655.832397,988.358276 1659.522827,984.392944 
	C1659.522827,1149.108154 1659.522827,1311.408691 1659.522827,1473.542358 
	C1725.222046,1473.542358 1789.684570,1473.542358 1853.755493,1473.542358 
	C1853.755493,1211.760010 1853.755493,950.646118 1853.755493,689.641296 
	C1852.362427,689.433899 1851.704712,689.250549 1851.046997,689.250244 
	C1797.721802,689.221863 1744.396118,689.318787 1691.072388,689.036926 
	C1685.136719,689.005615 1682.087524,691.886108 1678.724121,695.785400 
	C1598.846680,788.385803 1518.901855,880.928162 1438.992065,973.500549 
	C1437.121582,975.667419 1435.511719,978.059082 1433.474121,980.750305 
	C1429.771118,976.606506 1427.301392,973.923218 1424.918701,971.164673 
	C1345.637329,879.378235 1266.325562,787.617859 1187.200562,695.696777 
	C1183.098755,690.931641 1179.061157,689.013672 1172.782715,689.044250 
	C1121.791504,689.292786 1070.798462,689.183838 1019.806030,689.183777 
	C1017.268372,689.183777 1014.730713,689.183777 1011.472290,689.183777 
	C1011.472290,891.198303 1011.472290,1092.098877 1011.472290,1294.999756 
M2003.792480,890.999939 
	C2003.792480,1085.181396 2003.792480,1279.362915 2003.792480,1474.214966 
	C2008.169434,1474.214966 2011.438965,1474.214966 2014.708618,1474.214966 
	C2115.362549,1474.214600 2216.016357,1474.148071 2316.670410,1474.253418 
	C2347.678955,1474.285889 2378.618652,1473.421875 2409.480713,1470.155518 
	C2456.031006,1465.228760 2501.593506,1455.924072 2545.553223,1439.599731 
	C2602.345947,1418.510254 2652.643799,1387.421509 2693.185547,1341.845459 
	C2745.590088,1282.933838 2771.635498,1212.755981 2779.863037,1135.322998 
	C2783.994629,1096.438965 2783.731934,1057.515625 2778.062744,1018.711304 
	C2768.493164,953.211609 2745.271729,893.296753 2704.653809,840.693359 
	C2658.455078,780.862244 2598.099121,740.955627 2527.086670,716.574463 
	C2471.738281,697.571411 2414.539307,689.478394 2356.190186,689.362366 
	C2241.871826,689.135010 2127.553223,689.215393 2013.234619,689.191589 
	C2010.307495,689.190979 2007.380371,689.459351 2003.792480,689.634460 
	C2003.792480,756.431213 2003.792480,822.715576 2003.792480,890.999939 
M78.930435,1353.875244 
	C62.970078,1393.608154 47.009712,1433.341064 30.727577,1473.875000 
	C100.467819,1473.875000 168.710114,1473.875000 237.405991,1473.875000 
	C256.942474,1422.146973 276.427429,1370.555420 295.880005,1319.049561 
	C413.002106,1319.049561 529.235474,1319.049561 646.306458,1319.049561 
	C667.656372,1370.575317 689.032227,1422.163574 710.414917,1473.768555 
	C780.328613,1473.768555 849.845764,1473.768555 920.642090,1473.768555 
	C804.455505,1211.728516 688.645569,950.538086 573.011169,689.743408 
	C496.758514,689.743408 421.557556,689.743408 346.281891,689.743408 
	C344.706207,693.572998 343.293762,696.939819 341.931183,700.326660 
	C283.294189,846.079285 224.658829,991.832703 166.029770,1137.588501 
	C137.216415,1209.220215 108.415543,1280.857178 78.930435,1353.875244 
M3362.999756,875.578125 
	C3433.519043,875.578125 3504.038086,875.578125 3575.325195,875.578125 
	C3575.325195,880.386963 3575.325439,883.991272 3575.325439,887.595642 
	C3575.325684,1009.902161 3575.312012,1132.208618 3575.354736,1254.515137 
	C3575.357910,1263.150391 3573.600098,1272.659424 3576.621826,1280.168213 
	C3579.493896,1287.304688 3587.491699,1292.421021 3593.358398,1298.303101 
	C3666.547607,1371.682983 3739.749512,1445.049927 3813.006104,1518.362305 
	C3815.371826,1520.729736 3817.228760,1524.146973 3821.323730,1524.671265 
	C3823.698242,1474.971313 3822.497803,637.532104 3820.069336,628.840759 
	C3792.052490,626.702637 2934.777100,627.788574 2926.843750,630.073853 
	C2928.038818,631.418274 2929.070068,632.702026 2930.226074,633.860901 
	C3008.820557,712.641907 3087.457031,791.380859 3165.938965,870.273315 
	C3170.113281,874.469482 3174.354492,875.703186 3180.039551,875.686646 
	C3240.359131,875.511292 3300.679443,875.578003 3362.999756,875.578125 
M3170.859131,987.000488 
	C3170.859131,980.335205 3170.859375,973.669922 3170.859131,967.004639 
	C3170.859131,960.006287 3171.063232,953.000183 3170.798340,946.011902 
	C3170.556641,939.641235 3171.936523,933.105042 3169.815674,926.322388 
	C3168.386475,927.504517 3167.563232,928.078796 3166.865234,928.777771 
	C3085.407227,1010.382996 3003.999023,1092.038086 2922.395752,1173.497681 
	C2918.035400,1177.850464 2917.457275,1182.338379 2917.460693,1187.803711 
	C2917.533691,1300.110596 2917.517822,1412.417603 2917.519287,1524.724487 
	C2917.519287,1527.625732 2917.519287,1530.527100 2917.519287,1533.971924 
	C2919.918213,1534.117188 2921.508789,1534.297852 2923.099609,1534.298096 
	C3037.406006,1534.312378 3151.712402,1534.277100 3266.018555,1534.427246 
	C3271.268555,1534.434082 3274.611572,1532.339966 3278.057617,1528.857544 
	C3303.136230,1503.514893 3328.351807,1478.307983 3353.533447,1453.067261 
	C3407.898926,1398.573364 3462.291748,1344.106567 3516.568604,1289.524292 
	C3519.097900,1286.980835 3523.079102,1285.104980 3523.431396,1279.662109 
	C3405.726074,1279.662109 3288.627686,1279.662109 3170.859131,1279.662109 
	C3170.859131,1182.219238 3170.859131,1085.609863 3170.859131,987.000488 
z"/>
<path fill="#000000" opacity="1.000000" stroke="none" 
	d="
M1011.472290,1293.999634 
	C1011.472290,1092.098877 1011.472290,891.198303 1011.472290,689.183777 
	C1014.730713,689.183777 1017.268372,689.183777 1019.806030,689.183777 
	C1070.798462,689.183838 1121.791504,689.292786 1172.782715,689.044250 
	C1179.061157,689.013672 1183.098755,690.931641 1187.200562,695.696777 
	C1266.325562,787.617859 1345.637329,879.378235 1424.918701,971.164673 
	C1427.301392,973.923218 1429.771118,976.606506 1433.474121,980.750305 
	C1435.511719,978.059082 1437.121582,975.667419 1438.992065,973.500549 
	C1518.901855,880.928162 1598.846680,788.385803 1678.724121,695.785400 
	C1682.087524,691.886108 1685.136719,689.005615 1691.072388,689.036926 
	C1744.396118,689.318787 1797.721802,689.221863 1851.046997,689.250244 
	C1851.704712,689.250549 1852.362427,689.433899 1853.755493,689.641296 
	C1853.755493,950.646118 1853.755493,1211.760010 1853.755493,1473.542358 
	C1789.684570,1473.542358 1725.222046,1473.542358 1659.522827,1473.542358 
	C1659.522827,1311.408691 1659.522827,1149.108154 1659.522827,984.392944 
	C1655.832397,988.358276 1653.833984,990.360107 1651.996826,992.500366 
	C1587.100830,1068.097046 1522.110718,1143.613647 1457.502930,1219.456055 
	C1450.901001,1227.205811 1444.415649,1230.462402 1434.017212,1230.588623 
	C1422.207886,1230.731812 1414.762329,1226.885376 1407.183838,1217.969116 
	C1342.880005,1142.313354 1278.056396,1067.099365 1213.374390,991.764954 
	C1211.734009,989.854309 1209.930908,988.083374 1206.845825,984.804260 
	C1206.845825,1148.899048 1206.845825,1310.975830 1206.845825,1473.630981 
	C1141.552734,1473.630981 1077.084961,1473.630981 1011.472290,1473.630981 
	C1011.472290,1414.040039 1011.472290,1354.519897 1011.472290,1293.999634 
z"/>
<path fill="#010101" opacity="1.000000" stroke="none" 
	d="
M2003.792480,889.999878 
	C2003.792480,822.715576 2003.792480,756.431213 2003.792480,689.634460 
	C2007.380371,689.459351 2010.307495,689.190979 2013.234619,689.191589 
	C2127.553223,689.215393 2241.871826,689.135010 2356.190186,689.362366 
	C2414.539307,689.478394 2471.738281,697.571411 2527.086670,716.574463 
	C2598.099121,740.955627 2658.455078,780.862244 2704.653809,840.693359 
	C2745.271729,893.296753 2768.493164,953.211609 2778.062744,1018.711304 
	C2783.731934,1057.515625 2783.994629,1096.438965 2779.863037,1135.322998 
	C2771.635498,1212.755981 2745.590088,1282.933838 2693.185547,1341.845459 
	C2652.643799,1387.421509 2602.345947,1418.510254 2545.553223,1439.599731 
	C2501.593506,1455.924072 2456.031006,1465.228760 2409.480713,1470.155518 
	C2378.618652,1473.421875 2347.678955,1474.285889 2316.670410,1474.253418 
	C2216.016357,1474.148071 2115.362549,1474.214600 2014.708618,1474.214966 
	C2011.438965,1474.214966 2008.169434,1474.214966 2003.792480,1474.214966 
	C2003.792480,1279.362915 2003.792480,1085.181396 2003.792480,889.999878 
M2209.035645,1330.242920 
	C2251.349854,1330.205200 2293.663818,1330.188477 2335.978027,1330.121704 
	C2359.725586,1330.084351 2383.177734,1327.233643 2406.252930,1321.757324 
	C2475.158691,1305.404297 2526.787354,1267.050781 2556.954834,1202.008789 
	C2571.846680,1169.901001 2578.938477,1135.842651 2580.921143,1100.585327 
	C2583.304443,1058.199829 2578.793213,1016.759766 2564.027344,976.791748 
	C2542.951416,919.743591 2504.469971,879.098206 2448.309570,855.419250 
	C2416.005859,841.799011 2382.125244,834.744324 2347.260498,833.985657 
	C2299.637939,832.949402 2251.984863,833.325012 2204.344482,833.139404 
	C2202.796387,833.133362 2201.246338,833.608154 2199.644287,833.867432 
	C2199.644287,999.494324 2199.644287,1164.544067 2199.644287,1330.244263 
	C2202.490479,1330.244263 2204.764648,1330.244263 2209.035645,1330.242920 
z"/>
<path fill="#010101" opacity="1.000000" stroke="none" 
	d="
M79.269737,1353.183472 
	C108.415543,1280.857178 137.216415,1209.220215 166.029770,1137.588501 
	C224.658829,991.832703 283.294189,846.079285 341.931183,700.326660 
	C343.293762,696.939819 344.706207,693.572998 346.281891,689.743408 
	C421.557556,689.743408 496.758514,689.743408 573.011169,689.743408 
	C688.645569,950.538086 804.455505,1211.728516 920.642090,1473.768555 
	C849.845764,1473.768555 780.328613,1473.768555 710.414917,1473.768555 
	C689.032227,1422.163574 667.656372,1370.575317 646.306458,1319.049561 
	C529.235474,1319.049561 413.002106,1319.049561 295.880005,1319.049561 
	C276.427429,1370.555420 256.942474,1422.146973 237.405991,1473.875000 
	C168.710114,1473.875000 100.467819,1473.875000 30.727577,1473.875000 
	C47.009712,1433.341064 62.970078,1393.608154 79.269737,1353.183472 
M461.000000,1181.880981 
	C503.139282,1181.880981 545.278564,1181.880981 588.861572,1181.880981 
	C546.649963,1079.995850 505.019043,979.512329 462.452942,876.771667 
	C423.701935,979.698120 385.809845,1080.343140 347.581390,1181.881592 
	C385.755585,1181.881592 422.377777,1181.881592 461.000000,1181.880981 
z"/>
<path fill="#010101" opacity="1.000000" stroke="none" 
	d="
M3361.999512,875.578125 
	C3300.679443,875.578003 3240.359131,875.511292 3180.039551,875.686646 
	C3174.354492,875.703186 3170.113281,874.469482 3165.938965,870.273315 
	C3087.457031,791.380859 3008.820557,712.641907 2930.226074,633.860901 
	C2929.070068,632.702026 2928.038818,631.418274 2926.843750,630.073853 
	C2934.777100,627.788574 3792.052490,626.702637 3820.069336,628.840759 
	C3822.497803,637.532104 3823.698242,1474.971313 3821.323730,1524.671265 
	C3817.228760,1524.146973 3815.371826,1520.729736 3813.006104,1518.362305 
	C3739.749512,1445.049927 3666.547607,1371.682983 3593.358398,1298.303101 
	C3587.491699,1292.421021 3579.493896,1287.304688 3576.621826,1280.168213 
	C3573.600098,1272.659424 3575.357910,1263.150391 3575.354736,1254.515137 
	C3575.312012,1132.208618 3575.325684,1009.902161 3575.325439,887.595642 
	C3575.325439,883.991272 3575.325195,880.386963 3575.325195,875.578125 
	C3504.038086,875.578125 3433.519043,875.578125 3361.999512,875.578125 
z"/>
<path fill="#010101" opacity="1.000000" stroke="none" 
	d="
M3170.859131,988.000549 
	C3170.859131,1085.609863 3170.859131,1182.219238 3170.859131,1279.662109 
	C3288.627686,1279.662109 3405.726074,1279.662109 3523.431396,1279.662109 
	C3523.079102,1285.104980 3519.097900,1286.980835 3516.568604,1289.524292 
	C3462.291748,1344.106567 3407.898926,1398.573364 3353.533447,1453.067261 
	C3328.351807,1478.307983 3303.136230,1503.514893 3278.057617,1528.857544 
	C3274.611572,1532.339966 3271.268555,1534.434082 3266.018555,1534.427246 
	C3151.712402,1534.277100 3037.406006,1534.312378 2923.099609,1534.298096 
	C2921.508789,1534.297852 2919.918213,1534.117188 2917.519287,1533.971924 
	C2917.519287,1530.527100 2917.519287,1527.625732 2917.519287,1524.724487 
	C2917.517822,1412.417603 2917.533691,1300.110596 2917.460693,1187.803711 
	C2917.457275,1182.338379 2918.035400,1177.850464 2922.395752,1173.497681 
	C3003.999023,1092.038086 3085.407227,1010.382996 3166.865234,928.777771 
	C3167.563232,928.078796 3168.386475,927.504517 3169.815674,926.322388 
	C3171.936523,933.105042 3170.556641,939.641235 3170.798340,946.011902 
	C3171.063232,953.000183 3170.859131,960.006287 3170.859131,967.004639 
	C3170.859375,973.669922 3170.859131,980.335205 3170.859131,988.000549 
z"/>
<path fill="#FEFEFE" opacity="1.000000" stroke="none" 
	d="
M2208.037109,1330.243652 
	C2204.764648,1330.244263 2202.490479,1330.244263 2199.644287,1330.244263 
	C2199.644287,1164.544067 2199.644287,999.494324 2199.644287,833.867432 
	C2201.246338,833.608154 2202.796387,833.133362 2204.344482,833.139404 
	C2251.984863,833.325012 2299.637939,832.949402 2347.260498,833.985657 
	C2382.125244,834.744324 2416.005859,841.799011 2448.309570,855.419250 
	C2504.469971,879.098206 2542.951416,919.743591 2564.027344,976.791748 
	C2578.793213,1016.759766 2583.304443,1058.199829 2580.921143,1100.585327 
	C2578.938477,1135.842651 2571.846680,1169.901001 2556.954834,1202.008789 
	C2526.787354,1267.050781 2475.158691,1305.404297 2406.252930,1321.757324 
	C2383.177734,1327.233643 2359.725586,1330.084351 2335.978027,1330.121704 
	C2293.663818,1330.188477 2251.349854,1330.205200 2208.037109,1330.243652 
z"/>
<path fill="#FDFDFD" opacity="1.000000" stroke="none" 
	d="
M460.000000,1181.881348 
	C422.377777,1181.881592 385.755585,1181.881592 347.581390,1181.881592 
	C385.809845,1080.343140 423.701935,979.698120 462.452942,876.771667 
	C505.019043,979.512329 546.649963,1079.995850 588.861572,1181.880981 
	C545.278564,1181.880981 503.139282,1181.880981 460.000000,1181.881348 
z"/>
</svg>