<svg version="1.1" id="Layer_1" xmlns="http://www.w3.org/2000/svg" xmlns:xlink="http://www.w3.org/1999/xlink" x="0px" y="0px"
	 width="100%" viewBox="0 0 592 592" enable-background="new 0 0 592 592" xml:space="preserve">
<path fill="#000000" opacity="1.000000" stroke="none" 
	d="
M122.663376,341.885071 
	C105.471924,337.890686 93.846893,327.976410 90.379845,311.041687 
	C85.266266,286.064545 98.569000,266.118103 122.303535,261.110870 
	C144.690720,256.387878 166.535599,272.010406 170.490768,294.720398 
	C171.676758,301.530243 170.962173,307.998718 168.921204,314.394958 
	C167.518921,318.789642 165.472122,319.304474 162.081360,316.188324 
	C158.160004,312.584595 154.437897,308.758240 150.731750,304.929352 
	C149.458801,303.614227 148.156647,301.889496 149.836456,300.113373 
	C151.695007,298.148285 153.555481,299.415161 155.071747,300.807495 
	C157.978256,303.476379 160.042343,307.039917 163.632919,309.082520 
	C168.430359,296.705841 161.812332,280.248535 148.687561,271.600525 
	C135.358902,262.818115 116.512482,264.965393 105.028648,276.574768 
	C93.477921,288.251770 91.263496,306.565979 99.807793,319.753601 
	C108.671227,333.433777 125.699852,340.255432 138.884171,335.113983 
	C136.617767,331.132446 132.787445,328.677460 129.965469,325.351990 
	C128.581757,323.721405 126.565323,321.999451 128.971146,319.865448 
	C131.074493,317.999786 132.614136,319.850525 134.055359,321.230347 
	C137.906204,324.917084 141.757156,328.604126 145.570023,332.330017 
	C149.425949,336.097992 148.980576,338.186493 143.786957,340.152344 
	C137.077377,342.692017 130.107773,342.730988 122.663376,341.885071 
z"/>
<path fill="#000000" opacity="1.000000" stroke="none" 
	d="
M496.487732,322.903198 
	C498.087250,324.449554 498.822449,325.928131 497.274811,327.464508 
	C495.770416,328.957977 493.998230,328.336517 492.800293,327.136688 
	C489.240601,323.571259 485.246185,323.587341 480.504120,324.216858 
	C461.810303,326.698700 451.224548,309.520020 455.137787,295.593323 
	C457.756561,286.273468 463.954803,280.380341 473.549042,278.719635 
	C483.512512,276.994965 491.742676,280.409119 497.258545,288.897156 
	C502.508179,296.975464 502.562378,305.485199 497.518433,313.851685 
	C496.918488,314.846741 496.337128,315.912415 495.513977,316.702393 
	C493.054565,319.062744 493.518585,320.964172 496.487732,322.903198 
M479.118927,283.510834 
	C475.665985,283.109344 472.537048,284.199921 469.578400,285.770233 
	C463.054016,289.233093 460.056305,294.844269 460.287170,302.104523 
	C460.518585,309.383636 463.933563,314.676422 470.678345,317.745270 
	C477.298737,320.757568 483.376740,319.650177 488.797485,315.168427 
	C493.876373,310.969330 496.221375,305.313904 495.078552,298.809875 
	C493.599792,290.393829 488.218567,285.449585 479.118927,283.510834 
z"/>
<path fill="#000000" opacity="1.000000" stroke="none" 
	d="
M323.555481,293.216492 
	C323.855042,289.090027 323.924500,285.258881 324.166962,281.438751 
	C324.272644,279.773590 324.590759,277.922760 326.900726,277.995789 
	C329.225891,278.069336 329.351807,279.903778 329.374847,281.605499 
	C329.543915,294.088226 329.698975,306.571259 329.803101,319.054657 
	C329.818420,320.890686 329.682526,322.848785 327.622772,323.719727 
	C325.215912,324.737488 324.694183,322.140381 323.299713,321.272858 
	C313.002930,326.456512 304.718781,325.493073 299.413269,318.524963 
	C294.432800,311.983765 294.451599,302.906769 299.458405,296.732574 
	C304.512695,290.499847 312.348328,288.973938 320.238708,292.662476 
	C321.231445,293.126556 322.064911,294.270355 323.555481,293.216492 
M321.292358,315.744568 
	C322.018677,314.445618 322.922180,313.213196 323.439636,311.835785 
	C325.349091,306.753082 323.976807,302.309265 320.243347,298.638641 
	C317.281616,295.726807 310.830872,295.098755 307.079712,297.243286 
	C302.523102,299.848267 300.868713,304.006042 301.367737,309.081390 
	C301.788605,313.362000 303.802917,316.630951 307.808655,318.486053 
	C312.631744,320.719696 316.876953,319.533844 321.292358,315.744568 
z"/>
<path fill="#000000" opacity="1.000000" stroke="none" 
	d="
M361.858704,316.771912 
	C363.746460,315.732330 365.162781,315.818146 365.921936,317.561615 
	C366.660156,319.257019 365.466125,320.361969 364.313324,321.366699 
	C359.616272,325.460388 348.845764,325.821350 343.087494,322.086395 
	C336.809235,318.014038 333.915741,310.591675 335.821808,303.448364 
	C337.814301,295.981232 344.158539,290.898529 351.750641,290.686951 
	C359.784882,290.463074 366.548584,295.050446 368.131470,301.796936 
	C369.287109,306.722382 368.188263,308.200745 363.130066,308.239197 
	C355.857574,308.294495 348.584381,308.253326 341.274567,308.253326 
	C342.162811,318.677124 351.460785,322.412598 361.858704,316.771912 
M347.889038,303.003937 
	C352.550690,302.579895 357.325775,303.714508 362.239410,302.280090 
	C360.361786,296.941040 356.313019,295.912292 351.854614,296.074463 
	C347.749786,296.223785 344.313263,297.770844 342.905609,302.172577 
	C344.376770,303.182983 345.726013,302.948395 347.889038,303.003937 
z"/>
<path fill="#000000" opacity="1.000000" stroke="none" 
	d="
M140.311829,302.536652 
	C139.331543,305.603210 140.227356,307.531616 142.239731,309.493896 
	C149.970093,317.031708 157.543091,324.731232 165.150253,332.394775 
	C166.195541,333.447815 167.253464,334.544189 168.030396,335.791809 
	C168.777863,336.992157 168.704376,338.406891 167.563766,339.436188 
	C166.395782,340.490234 165.025833,340.336609 163.939178,339.365417 
	C161.713196,337.375854 159.570663,335.289124 157.452927,333.182953 
	C150.974487,326.740021 144.518127,320.274902 138.067047,313.804535 
	C136.494293,312.227112 135.020660,311.229034 132.413147,311.723114 
	C125.518806,313.029480 120.238518,309.162109 119.488976,302.738922 
	C118.760002,296.492004 123.181023,291.158234 129.388702,290.795380 
	C135.693192,290.426849 140.025070,294.919373 140.311829,302.536652 
M129.665024,296.617706 
	C125.299706,298.977020 124.040146,302.072266 126.521339,304.616943 
	C127.825249,305.954254 129.413773,306.845825 131.442368,305.972198 
	C133.281143,305.180389 134.442795,303.855499 134.607895,301.865753 
	C134.860764,298.818268 133.012497,297.361633 129.665024,296.617706 
z"/>
<path fill="#000000" opacity="1.000000" stroke="none" 
	d="
M385.837921,291.133911 
	C397.326996,289.936493 403.021973,294.908173 403.170532,305.878540 
	C403.233704,310.542023 403.169739,315.207794 403.118652,319.872009 
	C403.097595,321.797455 402.756317,323.835999 400.378571,323.907867 
	C397.860107,323.983978 397.698212,321.889282 397.686554,319.978119 
	C397.658081,315.313538 397.741394,310.646667 397.623291,305.984680 
	C397.472626,300.036987 395.026123,296.708771 390.513916,296.008453 
	C385.858093,295.285858 381.500397,298.497192 379.983002,303.957672 
	C378.620667,308.860016 379.620483,313.903564 379.327728,318.874420 
	C379.202698,320.997589 379.663879,323.794403 376.606354,323.841248 
	C373.507782,323.888763 373.839600,321.055145 373.820923,318.954041 
	C373.752808,311.291077 373.688934,303.626160 373.795074,295.964355 
	C373.854065,291.706573 375.555878,290.553955 378.897095,292.759491 
	C381.958679,294.780487 383.161957,291.146484 385.837921,291.133911 
z"/>
<path fill="#000000" opacity="1.000000" stroke="none" 
	d="
M220.331955,306.571838 
	C220.310837,310.835815 220.373459,314.659424 220.268753,318.478455 
	C220.208328,320.682831 220.845505,323.833099 217.438812,323.770081 
	C214.497116,323.715668 214.843597,320.815918 214.830444,318.704437 
	C214.784912,311.393646 214.774017,304.082062 214.838028,296.771545 
	C214.853287,295.028931 214.394409,292.965454 216.521942,291.950653 
	C218.649338,290.935944 219.740051,292.966034 221.284225,293.817749 
	C225.521317,290.917847 230.016342,289.759888 235.010025,291.429657 
	C239.471130,292.921326 242.303482,295.859680 243.310944,300.485229 
	C244.743668,307.063232 244.048889,313.721100 244.004333,320.351257 
	C243.992294,322.141510 243.348007,323.820557 241.254974,323.833099 
	C239.076965,323.846191 238.661224,322.112915 238.653320,320.321686 
	C238.634277,316.001709 238.719315,311.680145 238.632050,307.361847 
	C238.482040,299.937653 236.054550,296.380890 230.945908,295.876587 
	C225.512939,295.340210 221.819611,298.912506 220.331955,306.571838 
z"/>
<path fill="#000000" opacity="1.000000" stroke="none" 
	d="
M412.363770,319.216187 
	C409.978302,311.864380 411.552917,304.646057 410.931366,297.555725 
	C410.391357,296.142578 409.031250,296.450684 407.967987,296.150177 
	C406.868378,295.839355 406.298645,295.082733 406.243774,293.994873 
	C406.187408,292.877167 406.737427,291.919250 407.844421,291.806854 
	C411.571594,291.428345 411.677826,288.782074 411.730042,285.995972 
	C411.765137,284.124084 411.857208,281.950562 414.373260,282.013763 
	C416.879669,282.076752 417.002136,284.387268 416.873444,286.148102 
	C416.538452,290.731598 418.798370,292.027130 422.921570,291.597412 
	C424.491730,291.433807 426.645935,291.079071 426.612885,293.625397 
	C426.580841,296.095917 424.552185,296.520599 422.645691,296.261230 
	C417.701416,295.588531 416.637268,298.135895 416.908936,302.402222 
	C417.162201,306.379639 416.964844,310.383972 417.047943,314.374725 
	C417.095886,316.676636 417.721649,318.819366 420.373718,319.252411 
	C423.035522,319.687103 424.368347,318.147583 424.721863,315.630554 
	C425.002930,313.629272 426.078064,312.457275 428.107971,313.126526 
	C429.982483,313.744537 430.358154,315.494873 430.033600,317.249451 
	C429.381134,320.776825 427.579041,323.458435 423.879883,324.289337 
	C419.042725,325.375854 414.927856,324.503174 412.363770,319.216187 
z"/>
<path fill="#000000" opacity="1.000000" stroke="none" 
	d="
M254.850174,294.733002 
	C261.025391,290.280396 267.407837,289.628418 274.115143,292.013428 
	C276.079407,292.711884 278.865845,293.516022 277.998230,296.291412 
	C276.975586,299.562714 274.474335,297.546326 272.592133,296.933807 
	C264.906250,294.432648 257.643158,297.132111 255.373245,303.401642 
	C252.267532,311.979584 259.357117,320.685364 268.506897,319.457245 
	C270.142670,319.237701 271.761902,318.739349 273.327484,318.193787 
	C275.080750,317.582886 277.022034,316.491302 277.964752,318.969421 
	C278.837402,321.263367 276.849182,322.167236 275.176910,322.978943 
	C267.479218,326.715149 257.165649,324.298859 252.186600,317.612152 
	C247.030212,310.687256 247.930939,302.055786 254.850174,294.733002 
z"/>
<path fill="#000000" opacity="1.000000" stroke="none" 
	d="
M441.650330,298.000610 
	C441.659760,292.503235 441.663055,287.505707 441.679871,282.508209 
	C441.685913,280.706024 442.064758,278.963531 444.287292,279.043793 
	C446.238068,279.114258 447.209625,280.570160 447.213531,282.454865 
	C447.239655,295.114166 447.233002,307.773621 447.199615,320.432922 
	C447.194763,322.278656 446.389404,323.885590 444.383087,323.914185 
	C441.850922,323.950287 441.691376,321.903259 441.685242,319.990112 
	C441.662323,312.826935 441.659698,305.663696 441.650330,298.000610 
z"/>
<path fill="#000000" opacity="1.000000" stroke="none" 
	d="
M284.700195,320.597534 
	C284.664368,312.148621 284.619995,304.157806 284.656952,296.167419 
	C284.665802,294.253662 284.230164,291.750275 287.245361,291.723999 
	C290.171906,291.698547 290.019470,294.159241 290.032379,296.096375 
	C290.085632,304.086212 290.056549,312.077057 289.982605,320.066895 
	C289.966766,321.775665 289.569366,323.558105 287.465607,323.825684 
	C285.558655,324.068268 284.860687,322.752716 284.700195,320.597534 
z"/>
<path fill="#000000" opacity="1.000000" stroke="none" 
	d="
M200.961548,298.231628 
	C201.064987,296.605164 201.087463,295.438446 201.283997,294.301758 
	C201.526260,292.900696 202.165970,291.788666 203.849152,291.814301 
	C205.858368,291.844940 206.318024,293.227570 206.339584,294.829956 
	C206.399780,299.304352 206.395981,303.779755 206.399048,308.254761 
	C206.401657,312.067078 206.408569,315.879852 206.354019,319.691559 
	C206.328186,321.496796 206.508423,323.754333 203.971771,323.853485 
	C201.178879,323.962616 201.058746,321.585815 201.035431,319.589111 
	C200.954193,312.628296 200.975479,305.666260 200.961548,298.231628 
z"/>
<path fill="#000000" opacity="1.000000" stroke="none" 
	d="
M511.890472,326.401306 
	C509.204376,329.534241 506.401917,329.268982 504.422638,326.279449 
	C502.819305,323.857727 503.240417,321.139526 506.103729,319.480682 
	C507.628693,318.597168 509.268951,318.560364 510.851349,319.429047 
	C512.656555,320.420013 512.247864,321.846924 511.497833,323.255554 
	C510.922943,324.335297 511.642059,325.153381 511.890472,326.401306 
z"/>
<path fill="#000000" opacity="1.000000" stroke="none" 
	d="
M206.950348,283.378174 
	C205.406815,285.633881 203.659653,286.132965 201.748672,284.635010 
	C200.296661,283.496887 200.043701,281.866791 200.830597,280.185120 
	C201.561584,278.622925 202.919998,278.086700 204.512115,278.475220 
	C206.899490,279.057800 207.484436,280.795837 206.950348,283.378174 
z"/>
<path fill="#000000" opacity="1.000000" stroke="none" 
	d="
M286.140076,278.618713 
	C288.877808,278.371582 290.393646,279.289001 290.468658,281.830963 
	C290.517670,283.493042 289.798584,284.765472 288.094940,285.162170 
	C286.542145,285.523773 284.988922,285.324005 284.251404,283.713196 
	C283.329498,281.699615 283.446594,279.823822 286.140076,278.618713 
z"/>
</svg>