<svg version="1.1" id="Layer_1" xmlns="http://www.w3.org/2000/svg" xmlns:xlink="http://www.w3.org/1999/xlink" x="0px" y="0px"
	 width="100%" viewBox="0 0 900 500" enable-background="new 0 0 900 500" xml:space="preserve">
<path fill="#FFFFFF" opacity="1.000000" stroke="none" 
	d="
M850.000000,501.000000 
	C566.666687,501.000000 283.833344,501.000000 1.000000,501.000000 
	C1.000000,334.333344 1.000000,167.666672 1.000000,1.000000 
	C301.000000,1.000000 601.000000,1.000000 901.000000,1.000000 
	C901.000000,167.666672 901.000000,334.333344 901.000000,501.000000 
	C884.166687,501.000000 867.333313,501.000000 850.000000,501.000000 
M158.105789,285.012207 
	C161.406357,285.682892 161.384033,283.019745 161.886139,281.091949 
	C165.336716,267.843536 168.720947,254.577850 172.475052,239.960724 
	C176.653259,255.890808 180.463333,270.417328 184.242065,284.824280 
	C189.621033,284.824280 194.590454,284.824280 199.703461,284.824280 
	C206.038208,262.991180 212.333603,241.293777 218.757706,219.152695 
	C213.893127,219.152695 209.880768,218.886063 205.938446,219.294922 
	C204.527161,219.441284 202.509262,220.979126 202.101608,222.294952 
	C200.436722,227.668762 199.311020,233.208206 197.943100,238.675751 
	C195.805542,247.219604 193.632614,255.754608 191.474670,264.293365 
	C187.144791,252.122742 183.903748,240.021729 180.685318,227.914688 
	C178.199890,218.565033 178.212326,218.559204 168.514694,219.241272 
	C168.197296,219.263596 167.891235,219.447250 167.221802,219.680420 
	C163.167252,234.616882 159.056900,249.758835 154.549576,266.363251 
	C150.345627,249.703690 146.511093,234.508057 142.678741,219.321045 
	C137.209549,219.321045 132.244598,219.321045 126.843758,219.321045 
	C132.689423,239.630936 138.449554,259.673584 144.239517,279.707611 
	C144.742783,281.448944 145.442505,283.133514 146.110672,285.012360 
	C149.881729,285.012360 153.535156,285.012360 158.105789,285.012207 
M102.814865,212.845032 
	C99.798798,211.374084 96.819809,208.729202 93.760338,208.632568 
	C79.455902,208.180801 65.128822,208.491104 50.811001,208.379303 
	C48.068359,208.357880 47.256374,209.320435 46.730705,211.984818 
	C44.650818,222.526871 42.198757,232.995331 39.901367,243.494720 
	C39.157742,246.893204 38.465221,250.302856 37.749329,253.707382 
	C38.198997,253.951050 38.648666,254.194702 39.098335,254.438370 
	C39.751541,253.559891 40.364681,252.648056 41.064121,251.808090 
	C48.295628,243.123505 55.500027,234.415863 62.794239,225.784149 
	C70.032455,217.218704 70.130493,217.143936 80.134148,222.310638 
	C81.502213,223.017212 82.927948,225.602478 82.703560,227.069656 
	C81.504791,234.907959 79.736801,242.657349 78.270439,250.457184 
	C77.008247,257.170959 75.886658,263.911194 74.702896,270.639740 
	C76.538536,270.128510 77.451294,269.271698 78.215652,268.298309 
	C85.603966,258.889557 92.724190,249.257187 100.409203,240.098343 
	C107.478775,231.673004 105.629829,222.717331 102.814865,212.845032 
M288.643127,284.026276 
	C298.985474,287.181580 309.122406,284.272644 313.506989,275.926453 
	C315.743378,271.669373 316.991333,266.569916 317.410034,261.740540 
	C318.759705,246.172455 307.571411,234.144714 293.607849,236.177582 
	C289.295197,236.805435 285.268951,239.400681 280.998352,241.141266 
	C280.998352,234.070526 280.998352,226.622482 280.998352,219.059906 
	C276.628357,219.059906 272.527771,219.059906 268.154846,219.059906 
	C268.154846,239.475830 268.154877,259.623627 268.154877,279.771423 
	C268.154877,281.088684 268.154846,282.405914 268.154846,283.966187 
	C272.535675,283.966187 276.614227,283.966187 280.714111,283.966187 
	C280.955627,282.313568 281.170654,280.842407 281.396606,279.296265 
	C283.833405,280.973785 285.876770,282.380402 288.643127,284.026276 
M401.557007,272.713135 
	C405.809418,285.995514 418.938965,289.236176 432.991638,280.256561 
	C433.296661,281.510529 433.582031,282.683563 433.848236,283.777954 
	C438.068024,283.777954 441.998291,283.777954 446.051056,283.777954 
	C446.051056,272.234283 446.442291,260.904572 445.823792,249.630234 
	C445.626221,246.029144 443.519867,241.831390 440.962280,239.188553 
	C432.185059,230.118927 409.281433,233.606140 404.010345,242.436035 
	C405.503082,244.923737 407.015991,247.445084 408.581360,250.053802 
	C415.556183,245.318268 422.609558,242.243988 430.467621,246.900330 
	C433.678253,248.802780 434.118958,252.576096 432.572632,257.955383 
	C424.812286,252.971954 416.673401,251.342361 408.287170,256.065186 
	C402.184723,259.501892 400.534454,265.243958 401.557007,272.713135 
M572.670166,235.607819 
	C561.095764,232.190521 550.602417,233.876175 541.099609,241.827393 
	C542.848938,244.836227 544.327148,247.378677 545.931030,250.137360 
	C552.760559,245.157944 559.921387,242.289780 567.650635,246.846893 
	C571.831604,249.312012 571.059570,253.816071 570.396851,258.061768 
	C559.423645,251.992813 549.782715,251.900711 543.300232,257.660767 
	C538.651672,261.791290 536.712708,269.534424 539.990112,275.435120 
	C547.681946,289.283661 558.676147,286.719360 570.243652,280.672668 
	C570.608154,281.762238 570.990234,282.904480 571.259460,283.709106 
	C575.682739,283.709106 579.607361,283.709106 583.851501,283.709106 
	C583.851501,273.952972 583.863525,264.500031 583.839233,255.047180 
	C583.835388,253.555206 583.695190,252.061371 583.570862,250.572327 
	C582.999573,243.731003 579.954529,238.603195 572.670166,235.607819 
M242.623398,285.012329 
	C247.851120,283.276459 253.078827,281.540588 259.061737,279.553986 
	C256.353485,275.704163 254.514023,273.089355 252.705826,270.518951 
	C239.474030,278.205841 228.846741,275.566193 226.156891,263.831299 
	C237.965958,263.831299 249.665985,263.831299 262.012939,263.831299 
	C261.637817,259.999023 261.650360,256.683411 260.941650,253.529892 
	C258.777222,243.898987 253.370667,236.837616 243.422379,234.562027 
	C233.618393,232.319473 224.820816,234.702484 218.339859,242.740982 
	C211.195023,251.602859 210.371201,261.682373 215.197174,271.693115 
	C220.472107,282.635162 230.173309,286.049561 242.623398,285.012329 
M597.744141,235.146591 
	C594.865051,234.721512 594.046082,236.020782 594.091797,238.815384 
	C594.238770,247.808228 594.146362,256.804993 594.146301,265.800232 
	C594.146301,271.561157 594.146301,277.322083 594.146301,283.323547 
	C598.709229,283.323547 602.633667,283.323547 607.016907,283.323547 
	C607.016907,273.667786 606.936707,264.216003 607.085632,254.767792 
	C607.114929,252.908951 607.545227,250.690582 608.630005,249.286499 
	C611.312500,245.814545 617.862427,244.364853 621.905640,245.997253 
	C626.445496,247.830139 626.810120,251.792496 626.793213,255.948990 
	C626.756836,264.902435 626.781982,273.856110 626.781982,283.022278 
	C631.236633,283.022278 635.280457,283.022278 639.193420,283.022278 
	C639.193420,270.759613 639.464966,258.779755 639.086426,246.820480 
	C638.876465,240.187088 634.956604,236.372253 628.464294,234.739639 
	C620.377319,232.705994 613.568359,235.496643 607.207520,240.732346 
	C607.044006,238.674408 606.916809,237.074005 606.763611,235.146362 
	C603.957581,235.146362 601.311951,235.146362 597.744141,235.146591 
M473.590027,274.136810 
	C467.099152,273.178497 465.328064,271.075562 465.236542,263.568024 
	C465.125549,254.462082 465.210175,245.353745 465.210175,236.288452 
	C460.822510,236.288452 456.921844,236.288452 452.904999,236.288452 
	C452.904999,248.557724 452.683960,260.534058 452.986633,272.497131 
	C453.172852,279.857300 457.899292,284.341858 465.197174,285.159180 
	C472.479980,285.974823 478.922943,283.942322 484.839386,278.757782 
	C485.102600,280.896088 485.285919,282.385406 485.441895,283.652588 
	C489.808777,283.652588 493.711670,283.652588 497.479553,283.652588 
	C497.479553,267.583344 497.479553,251.874878 497.479553,236.347229 
	C493.200653,236.347229 489.292999,236.347229 485.154480,236.347229 
	C485.154480,245.172531 485.154541,253.641342 485.154480,262.110138 
	C485.154449,270.690247 483.055786,273.042328 473.590027,274.136810 
M346.630890,244.327484 
	C349.726807,245.769806 352.822723,247.212128 356.259796,248.813400 
	C357.748016,246.237244 359.356232,243.453339 361.021179,240.571198 
	C352.105957,234.247314 342.825012,232.259384 332.758331,235.330124 
	C325.551758,237.528412 321.446777,242.925140 321.429993,249.460938 
	C321.412964,256.090118 324.913910,260.545105 332.566833,262.960297 
	C336.985168,264.354706 341.660889,264.958588 346.030792,266.468262 
	C347.676208,267.036713 350.136139,269.583405 349.853241,270.480408 
	C349.292267,272.259430 347.310211,274.017731 345.488678,274.846008 
	C343.824921,275.602570 341.443024,275.629639 339.648254,275.085510 
	C334.701202,273.585602 329.895935,271.618011 324.765289,269.736664 
	C323.360840,272.021606 321.656281,274.794830 319.797302,277.819244 
	C328.648285,285.057281 338.505920,286.621979 349.036957,284.294769 
	C357.926544,282.330261 362.765839,276.842377 362.843292,269.611511 
	C362.919312,262.518463 358.549133,257.594208 349.709229,254.921661 
	C347.648682,254.298691 345.525513,253.883774 343.433167,253.365036 
	C341.496307,252.884872 339.406281,252.698547 337.675140,251.813080 
	C336.240021,251.079010 334.058289,249.196350 334.278839,248.386887 
	C334.712372,246.795593 336.375214,244.831985 337.911102,244.409439 
	C340.383331,243.729233 343.164825,244.173233 346.630890,244.327484 
M653.056274,279.209564 
	C653.885864,280.244690 654.595825,281.411804 655.566406,282.291351 
	C659.188721,285.574036 669.458801,286.492767 673.568359,283.658295 
	C677.880981,280.683685 673.290833,277.460175 673.433228,274.329803 
	C673.444824,274.074982 673.083679,273.803253 672.890137,273.543304 
	C667.221680,274.511169 664.920776,273.791718 664.760254,270.172638 
	C664.424866,262.610535 664.658691,255.023132 664.658691,247.000122 
	C668.285461,247.000122 671.200867,247.000122 673.835449,247.000122 
	C673.835449,243.122437 673.835449,239.722961 673.835449,235.854401 
	C670.541077,235.854401 667.634949,235.854401 664.330200,235.854401 
	C664.330200,231.417099 664.330200,227.472351 664.330200,223.339905 
	C659.973511,223.339905 656.035217,223.339905 651.499329,223.339905 
	C651.499329,227.578751 651.499329,231.646408 651.499329,235.878525 
	C648.674316,236.068542 646.418091,236.220322 644.017090,236.381836 
	C644.017090,240.035736 644.017090,243.456329 644.017090,247.032837 
	C646.493835,247.185089 648.750244,247.323807 651.414917,247.487625 
	C651.414917,251.572861 651.257385,255.388321 651.450195,259.185974 
	C651.777161,265.626526 652.325195,272.055908 653.056274,279.209564 
M383.297455,285.024384 
	C384.626373,285.083496 385.958282,285.231659 387.283722,285.187347 
	C396.249207,284.887604 397.341949,283.441956 394.947723,275.129761 
	C394.771790,274.518890 394.502625,273.934845 394.245575,273.255859 
	C390.434509,274.254425 386.131744,275.373657 385.737061,269.889923 
	C385.202850,262.468597 385.604248,254.979919 385.604248,247.115646 
	C389.077759,247.115646 392.006073,247.115646 394.937866,247.115646 
	C394.937866,243.265533 394.937866,239.839355 394.937866,235.979553 
	C391.732117,235.979553 388.803162,235.979553 385.295258,235.979553 
	C385.295258,231.490829 385.295258,227.438934 385.295258,223.299545 
	C380.898010,223.299545 377.093140,223.299545 372.828461,223.299545 
	C372.828461,227.522385 372.828461,231.610580 372.828461,235.868164 
	C369.971069,236.063446 367.554871,236.228577 365.058624,236.399185 
	C365.058624,240.104599 365.058624,243.517441 365.058624,247.011780 
	C367.711639,247.196960 370.100189,247.363693 372.784821,247.551086 
	C372.784821,256.061066 372.748322,264.031433 372.795227,272.001312 
	C372.840576,279.706512 375.159332,282.754211 383.297455,285.024384 
M706.020935,246.634476 
	C702.274109,245.295135 698.433289,244.167435 694.806580,242.557465 
	C691.120422,240.921112 688.499451,238.237534 688.676147,233.741623 
	C688.859009,229.087906 691.267090,225.778458 695.350220,224.036179 
	C698.031738,222.891937 701.072754,222.319275 704.001282,222.077118 
	C711.895691,221.424301 718.450073,224.720627 724.217712,230.106674 
	C725.504150,228.566498 726.513245,227.358459 727.479858,226.201172 
	C717.935059,215.347687 698.994751,213.438782 688.202576,221.969162 
	C679.669800,228.713654 680.158997,241.176117 689.372070,246.795181 
	C692.306885,248.585114 695.668762,249.740219 698.934631,250.907761 
	C704.854919,253.024231 710.973816,254.631958 716.771362,257.028870 
	C720.858459,258.718597 723.141846,262.208313 723.052612,266.928680 
	C722.961914,271.725739 720.764832,275.358398 716.539673,277.303619 
	C713.595703,278.658966 710.286194,279.589050 707.062317,279.897888 
	C697.881409,280.777527 690.338989,276.786377 683.830627,270.894775 
	C679.896423,273.601471 680.275330,275.862823 683.650757,278.360291 
	C694.481812,286.374268 706.331421,287.378998 718.569275,282.858612 
	C725.498291,280.299194 729.406372,274.566650 729.534851,267.045380 
	C729.663452,259.519165 726.053101,253.963867 719.007080,251.059540 
	C715.032593,249.421341 710.870056,248.239456 706.020935,246.634476 
M535.316528,234.036026 
	C530.699463,235.815125 526.082397,237.594223 521.425049,239.388840 
	C521.274292,238.261612 521.064270,236.691193 520.872803,235.259277 
	C516.655334,235.259277 512.732056,235.259277 508.634155,235.259277 
	C508.634155,251.263672 508.634155,266.991394 508.634155,282.922821 
	C512.893188,282.922821 516.938965,282.922821 521.218262,282.922821 
	C521.218262,274.333618 521.218140,266.038788 521.218323,257.743958 
	C521.218445,249.844467 523.862122,246.941193 531.883240,246.079224 
	C533.278687,245.929291 534.685730,245.887360 536.039490,245.798676 
	C536.039490,241.740601 536.039490,238.092453 535.316528,234.036026 
M842.881287,261.162781 
	C855.781250,261.162781 868.681152,261.162781 881.537781,261.162781 
	C882.049866,246.198288 873.868042,235.296448 861.852539,234.055283 
	C849.985962,232.829529 840.450195,238.617538 836.259338,249.589645 
	C831.810181,261.238312 835.539429,274.498413 845.171875,281.278687 
	C853.813171,287.361359 867.990112,286.508301 876.426086,279.661957 
	C879.537048,277.137268 877.813232,276.038605 875.791870,274.635254 
	C873.478638,276.036652 871.450256,277.486450 869.241150,278.566895 
	C857.487854,284.315491 843.992249,278.347412 841.254578,266.122223 
	C840.920288,264.629425 841.707703,262.885376 842.881287,261.162781 
M62.149094,257.035309 
	C62.506538,254.764938 62.863987,252.494583 63.221432,250.224213 
	C62.864426,250.128586 62.507416,250.032974 62.150410,249.937347 
	C52.727253,261.672760 43.304096,273.408142 33.951931,285.055145 
	C29.010077,282.875153 24.470444,280.872589 19.712122,278.773560 
	C19.166267,288.079529 23.049976,293.617157 30.324276,293.890167 
	C38.433212,294.194489 46.562378,293.959900 54.756527,293.959900 
	C57.226688,281.750244 59.644024,269.801727 62.149094,257.035309 
M801.623596,242.959869 
	C795.304749,234.884811 786.948486,232.314270 777.236328,234.628433 
	C762.322327,238.182022 754.979309,255.804688 761.786621,271.251892 
	C765.612915,279.934601 772.127197,284.808502 781.831238,285.144501 
	C791.790527,285.489288 799.309448,281.579681 803.702942,272.523804 
	C808.501282,262.633636 807.737183,252.923981 801.623596,242.959869 
M740.300720,236.073502 
	C737.864136,236.839325 732.922241,234.146317 734.182861,240.551453 
	C736.778076,240.783157 739.164612,240.996231 741.856506,241.236572 
	C741.856506,252.964355 741.793213,264.259491 741.877930,275.553467 
	C741.937805,283.530853 748.569397,287.802094 755.973450,284.802521 
	C759.186157,283.500946 760.134705,281.775635 757.333557,279.119446 
	C749.437378,281.994751 747.037537,280.280792 747.015930,271.877441 
	C747.007385,268.548859 747.014587,265.220215 747.014587,261.891602 
	C747.014587,254.964981 747.014526,248.038376 747.014526,241.068710 
	C750.685059,240.902679 753.625671,240.769669 756.832336,240.624619 
	C756.732788,232.500397 749.850708,238.412079 746.883301,234.415878 
	C746.883301,231.529266 746.883301,227.470016 746.883301,223.031570 
	C744.835388,223.260513 743.445068,223.415955 742.253296,223.549194 
	C741.861938,227.952316 741.513306,231.874756 740.300720,236.073502 
M834.485840,235.057190 
	C831.470154,235.557587 828.263123,235.582779 825.494995,236.697754 
	C822.945740,237.724609 820.868286,239.922897 818.324890,241.795212 
	C818.138916,239.218903 817.999023,237.280319 817.838196,235.052170 
	C816.100769,235.138885 814.711609,235.208237 813.309937,235.278198 
	C813.309937,251.563644 813.309937,267.459167 813.309937,283.672882 
	C815.040039,283.554596 816.428345,283.459717 818.132507,283.343231 
	C818.132507,273.617737 818.132385,264.312134 818.132507,255.006516 
	C818.132568,245.702835 822.165955,240.877884 831.408325,239.928192 
	C834.479492,239.612610 834.977478,238.310059 834.485840,235.057190 
M82.672539,293.176880 
	C89.159515,294.566345 95.743851,295.369812 101.129959,290.518188 
	C108.212013,284.138916 103.731453,275.795990 104.121040,268.181519 
	C97.113365,276.318542 90.105698,284.455597 82.672539,293.176880 
M22.920044,212.177139 
	C21.716433,214.641022 19.601109,217.059189 19.474878,219.577072 
	C19.042835,228.195007 19.309210,236.847946 19.309210,245.487534 
	C21.446955,235.569275 23.224358,225.662064 24.775217,215.719513 
	C24.970739,214.465988 23.975147,213.026672 22.920044,212.177139 
z"/>
<path fill="#1F9007" opacity="1.000000" stroke="none" 
	d="
M157.647186,285.012268 
	C153.535156,285.012360 149.881729,285.012360 146.110672,285.012360 
	C145.442505,283.133514 144.742783,281.448944 144.239517,279.707611 
	C138.449554,259.673584 132.689423,239.630936 126.843758,219.321045 
	C132.244598,219.321045 137.209549,219.321045 142.678741,219.321045 
	C146.511093,234.508057 150.345627,249.703690 154.549576,266.363251 
	C159.056900,249.758835 163.167252,234.616882 167.221802,219.680420 
	C167.891235,219.447250 168.197296,219.263596 168.514694,219.241272 
	C178.212326,218.559204 178.199890,218.565033 180.685318,227.914688 
	C183.903748,240.021729 187.144791,252.122742 191.474670,264.293365 
	C193.632614,255.754608 195.805542,247.219604 197.943100,238.675751 
	C199.311020,233.208206 200.436722,227.668762 202.101608,222.294952 
	C202.509262,220.979126 204.527161,219.441284 205.938446,219.294922 
	C209.880768,218.886063 213.893127,219.152695 218.757706,219.152695 
	C212.333603,241.293777 206.038208,262.991180 199.703461,284.824280 
	C194.590454,284.824280 189.621033,284.824280 184.242065,284.824280 
	C180.463333,270.417328 176.653259,255.890808 172.475052,239.960724 
	C168.720947,254.577850 165.336716,267.843536 161.886139,281.091949 
	C161.384033,283.019745 161.406357,285.682892 157.647186,285.012268 
z"/>
<path fill="#1F9007" opacity="1.000000" stroke="none" 
	d="
M103.017075,213.176300 
	C105.629829,222.717331 107.478775,231.673004 100.409203,240.098343 
	C92.724190,249.257187 85.603966,258.889557 78.215652,268.298309 
	C77.451294,269.271698 76.538536,270.128510 74.702896,270.639740 
	C75.886658,263.911194 77.008247,257.170959 78.270439,250.457184 
	C79.736801,242.657349 81.504791,234.907959 82.703560,227.069656 
	C82.927948,225.602478 81.502213,223.017212 80.134148,222.310638 
	C70.130493,217.143936 70.032455,217.218704 62.794239,225.784149 
	C55.500027,234.415863 48.295628,243.123505 41.064121,251.808090 
	C40.364681,252.648056 39.751541,253.559891 39.098335,254.438370 
	C38.648666,254.194702 38.198997,253.951050 37.749329,253.707382 
	C38.465221,250.302856 39.157742,246.893204 39.901367,243.494720 
	C42.198757,232.995331 44.650818,222.526871 46.730705,211.984818 
	C47.256374,209.320435 48.068359,208.357880 50.811001,208.379303 
	C65.128822,208.491104 79.455902,208.180801 93.760338,208.632568 
	C96.819809,208.729202 99.798798,211.374084 103.017075,213.176300 
z"/>
<path fill="#1E9006" opacity="1.000000" stroke="none" 
	d="
M288.281616,283.906677 
	C285.876770,282.380402 283.833405,280.973785 281.396606,279.296265 
	C281.170654,280.842407 280.955627,282.313568 280.714111,283.966187 
	C276.614227,283.966187 272.535675,283.966187 268.154846,283.966187 
	C268.154846,282.405914 268.154877,281.088684 268.154877,279.771423 
	C268.154877,259.623627 268.154846,239.475830 268.154846,219.059906 
	C272.527771,219.059906 276.628357,219.059906 280.998352,219.059906 
	C280.998352,226.622482 280.998352,234.070526 280.998352,241.141266 
	C285.268951,239.400681 289.295197,236.805435 293.607849,236.177582 
	C307.571411,234.144714 318.759705,246.172455 317.410034,261.740540 
	C316.991333,266.569916 315.743378,271.669373 313.506989,275.926453 
	C309.122406,284.272644 298.985474,287.181580 288.281616,283.906677 
M282.502747,270.758179 
	C289.782990,275.416199 296.726044,275.303070 301.030670,270.456299 
	C305.378784,265.560547 305.430817,256.317871 301.156708,251.075897 
	C297.941284,247.132339 293.495758,246.029663 289.045410,247.358856 
	C286.162842,248.219772 281.963928,250.639694 281.620972,252.864532 
	C280.758392,258.459869 281.748505,264.340790 282.502747,270.758179 
z"/>
<path fill="#209008" opacity="1.000000" stroke="none" 
	d="
M401.490906,272.308167 
	C400.534454,265.243958 402.184723,259.501892 408.287170,256.065186 
	C416.673401,251.342361 424.812286,252.971954 432.572632,257.955383 
	C434.118958,252.576096 433.678253,248.802780 430.467621,246.900330 
	C422.609558,242.243988 415.556183,245.318268 408.581360,250.053802 
	C407.015991,247.445084 405.503082,244.923737 404.010345,242.436035 
	C409.281433,233.606140 432.185059,230.118927 440.962280,239.188553 
	C443.519867,241.831390 445.626221,246.029144 445.823792,249.630234 
	C446.442291,260.904572 446.051056,272.234283 446.051056,283.777954 
	C441.998291,283.777954 438.068024,283.777954 433.848236,283.777954 
	C433.582031,282.683563 433.296661,281.510529 432.991638,280.256561 
	C418.938965,289.236176 405.809418,285.995514 401.490906,272.308167 
M425.989258,262.210968 
	C424.338867,262.172668 422.649292,261.887695 421.045471,262.142517 
	C416.319092,262.893433 413.320160,266.815186 414.192841,270.817993 
	C415.039001,274.699249 419.683105,277.121490 424.997040,276.453247 
	C431.467590,275.639526 433.594482,273.491333 433.483673,268.469635 
	C433.383087,263.910004 429.627899,263.751770 425.989258,262.210968 
z"/>
<path fill="#209108" opacity="1.000000" stroke="none" 
	d="
M573.024658,235.773407 
	C579.954529,238.603195 582.999573,243.731003 583.570862,250.572327 
	C583.695190,252.061371 583.835388,253.555206 583.839233,255.047180 
	C583.863525,264.500031 583.851501,273.952972 583.851501,283.709106 
	C579.607361,283.709106 575.682739,283.709106 571.259460,283.709106 
	C570.990234,282.904480 570.608154,281.762238 570.243652,280.672668 
	C558.676147,286.719360 547.681946,289.283661 539.990112,275.435120 
	C536.712708,269.534424 538.651672,261.791290 543.300232,257.660767 
	C549.782715,251.900711 559.423645,251.992813 570.396851,258.061768 
	C571.059570,253.816071 571.831604,249.312012 567.650635,246.846893 
	C559.921387,242.289780 552.760559,245.157944 545.931030,250.137360 
	C544.327148,247.378677 542.848938,244.836227 541.099609,241.827393 
	C550.602417,233.876175 561.095764,232.190521 573.024658,235.773407 
M556.251465,275.880127 
	C559.675842,275.731110 563.252380,276.153259 566.486816,275.291473 
	C570.731995,274.160339 573.038940,268.161865 570.012512,265.952332 
	C566.856506,263.648132 562.238037,262.548584 558.244629,262.512512 
	C556.114319,262.493286 553.147522,265.433594 552.003235,267.751465 
	C550.441101,270.915680 552.158020,273.857513 556.251465,275.880127 
z"/>
<path fill="#1F9007" opacity="1.000000" stroke="none" 
	d="
M242.204147,285.015076 
	C230.173309,286.049561 220.472107,282.635162 215.197174,271.693115 
	C210.371201,261.682373 211.195023,251.602859 218.339859,242.740982 
	C224.820816,234.702484 233.618393,232.319473 243.422379,234.562027 
	C253.370667,236.837616 258.777222,243.898987 260.941650,253.529892 
	C261.650360,256.683411 261.637817,259.999023 262.012939,263.831299 
	C249.665985,263.831299 237.965958,263.831299 226.156891,263.831299 
	C228.846741,275.566193 239.474030,278.205841 252.705826,270.518951 
	C254.514023,273.089355 256.353485,275.704163 259.061737,279.553986 
	C253.078827,281.540588 247.851120,283.276459 242.204147,285.015076 
M235.908585,244.210602 
	C228.876862,246.396469 226.616058,248.866669 226.258270,254.816406 
	C233.825546,254.816406 241.387756,254.816406 248.962189,254.816406 
	C248.403519,247.679977 244.804901,244.609848 235.908585,244.210602 
z"/>
<path fill="#219109" opacity="1.000000" stroke="none" 
	d="
M598.205200,235.146484 
	C601.311951,235.146362 603.957581,235.146362 606.763611,235.146362 
	C606.916809,237.074005 607.044006,238.674408 607.207520,240.732346 
	C613.568359,235.496643 620.377319,232.705994 628.464294,234.739639 
	C634.956604,236.372253 638.876465,240.187088 639.086426,246.820480 
	C639.464966,258.779755 639.193420,270.759613 639.193420,283.022278 
	C635.280457,283.022278 631.236633,283.022278 626.781982,283.022278 
	C626.781982,273.856110 626.756836,264.902435 626.793213,255.948990 
	C626.810120,251.792496 626.445496,247.830139 621.905640,245.997253 
	C617.862427,244.364853 611.312500,245.814545 608.630005,249.286499 
	C607.545227,250.690582 607.114929,252.908951 607.085632,254.767792 
	C606.936707,264.216003 607.016907,273.667786 607.016907,283.323547 
	C602.633667,283.323547 598.709229,283.323547 594.146301,283.323547 
	C594.146301,277.322083 594.146301,271.561157 594.146301,265.800232 
	C594.146362,256.804993 594.238770,247.808228 594.091797,238.815384 
	C594.046082,236.020782 594.865051,234.721512 598.205200,235.146484 
z"/>
<path fill="#1E9006" opacity="1.000000" stroke="none" 
	d="
M474.006897,274.136841 
	C483.055786,273.042328 485.154449,270.690247 485.154480,262.110138 
	C485.154541,253.641342 485.154480,245.172531 485.154480,236.347229 
	C489.292999,236.347229 493.200653,236.347229 497.479553,236.347229 
	C497.479553,251.874878 497.479553,267.583344 497.479553,283.652588 
	C493.711670,283.652588 489.808777,283.652588 485.441895,283.652588 
	C485.285919,282.385406 485.102600,280.896088 484.839386,278.757782 
	C478.922943,283.942322 472.479980,285.974823 465.197174,285.159180 
	C457.899292,284.341858 453.172852,279.857300 452.986633,272.497131 
	C452.683960,260.534058 452.904999,248.557724 452.904999,236.288452 
	C456.921844,236.288452 460.822510,236.288452 465.210175,236.288452 
	C465.210175,245.353745 465.125549,254.462082 465.236542,263.568024 
	C465.328064,271.075562 467.099152,273.178497 474.006897,274.136841 
z"/>
<path fill="#209007" opacity="1.000000" stroke="none" 
	d="
M346.223267,244.234879 
	C343.164825,244.173233 340.383331,243.729233 337.911102,244.409439 
	C336.375214,244.831985 334.712372,246.795593 334.278839,248.386887 
	C334.058289,249.196350 336.240021,251.079010 337.675140,251.813080 
	C339.406281,252.698547 341.496307,252.884872 343.433167,253.365036 
	C345.525513,253.883774 347.648682,254.298691 349.709229,254.921661 
	C358.549133,257.594208 362.919312,262.518463 362.843292,269.611511 
	C362.765839,276.842377 357.926544,282.330261 349.036957,284.294769 
	C338.505920,286.621979 328.648285,285.057281 319.797302,277.819244 
	C321.656281,274.794830 323.360840,272.021606 324.765289,269.736664 
	C329.895935,271.618011 334.701202,273.585602 339.648254,275.085510 
	C341.443024,275.629639 343.824921,275.602570 345.488678,274.846008 
	C347.310211,274.017731 349.292267,272.259430 349.853241,270.480408 
	C350.136139,269.583405 347.676208,267.036713 346.030792,266.468262 
	C341.660889,264.958588 336.985168,264.354706 332.566833,262.960297 
	C324.913910,260.545105 321.412964,256.090118 321.429993,249.460938 
	C321.446777,242.925140 325.551758,237.528412 332.758331,235.330124 
	C342.825012,232.259384 352.105957,234.247314 361.021179,240.571198 
	C359.356232,243.453339 357.748016,246.237244 356.259796,248.813400 
	C352.822723,247.212128 349.726807,245.769806 346.223267,244.234879 
z"/>
<path fill="#23920B" opacity="1.000000" stroke="none" 
	d="
M652.918335,278.849762 
	C652.325195,272.055908 651.777161,265.626526 651.450195,259.185974 
	C651.257385,255.388321 651.414917,251.572861 651.414917,247.487625 
	C648.750244,247.323807 646.493835,247.185089 644.017090,247.032837 
	C644.017090,243.456329 644.017090,240.035736 644.017090,236.381836 
	C646.418091,236.220322 648.674316,236.068542 651.499329,235.878525 
	C651.499329,231.646408 651.499329,227.578751 651.499329,223.339905 
	C656.035217,223.339905 659.973511,223.339905 664.330200,223.339905 
	C664.330200,227.472351 664.330200,231.417099 664.330200,235.854401 
	C667.634949,235.854401 670.541077,235.854401 673.835449,235.854401 
	C673.835449,239.722961 673.835449,243.122437 673.835449,247.000122 
	C671.200867,247.000122 668.285461,247.000122 664.658691,247.000122 
	C664.658691,255.023132 664.424866,262.610535 664.760254,270.172638 
	C664.920776,273.791718 667.221680,274.511169 672.892883,273.541321 
	C673.083679,273.803253 673.444824,274.074982 673.433228,274.329803 
	C673.290833,277.460175 677.880981,280.683685 673.568359,283.658295 
	C669.458801,286.492767 659.188721,285.574036 655.566406,282.291351 
	C654.595825,281.411804 653.885864,280.244690 652.918335,278.849762 
z"/>
<path fill="#209008" opacity="1.000000" stroke="none" 
	d="
M382.906433,285.013947 
	C375.159332,282.754211 372.840576,279.706512 372.795227,272.001312 
	C372.748322,264.031433 372.784821,256.061066 372.784821,247.551086 
	C370.100189,247.363693 367.711639,247.196960 365.058624,247.011780 
	C365.058624,243.517441 365.058624,240.104599 365.058624,236.399185 
	C367.554871,236.228577 369.971069,236.063446 372.828461,235.868164 
	C372.828461,231.610580 372.828461,227.522385 372.828461,223.299545 
	C377.093140,223.299545 380.898010,223.299545 385.295258,223.299545 
	C385.295258,227.438934 385.295258,231.490829 385.295258,235.979553 
	C388.803162,235.979553 391.732117,235.979553 394.937866,235.979553 
	C394.937866,239.839355 394.937866,243.265533 394.937866,247.115646 
	C392.006073,247.115646 389.077759,247.115646 385.604248,247.115646 
	C385.604248,254.979919 385.202850,262.468597 385.737061,269.889923 
	C386.131744,275.373657 390.434509,274.254425 394.245575,273.255859 
	C394.502625,273.934845 394.771790,274.518890 394.947723,275.129761 
	C397.341949,283.441956 396.249207,284.887604 387.283722,285.187347 
	C385.958282,285.231659 384.626373,285.083496 382.906433,285.013947 
z"/>
<path fill="#898A89" opacity="1.000000" stroke="none" 
	d="
M706.406616,246.743256 
	C710.870056,248.239456 715.032593,249.421341 719.007080,251.059540 
	C726.053101,253.963867 729.663452,259.519165 729.534851,267.045380 
	C729.406372,274.566650 725.498291,280.299194 718.569275,282.858612 
	C706.331421,287.378998 694.481812,286.374268 683.650757,278.360291 
	C680.275330,275.862823 679.896423,273.601471 683.830627,270.894775 
	C690.338989,276.786377 697.881409,280.777527 707.062317,279.897888 
	C710.286194,279.589050 713.595703,278.658966 716.539673,277.303619 
	C720.764832,275.358398 722.961914,271.725739 723.052612,266.928680 
	C723.141846,262.208313 720.858459,258.718597 716.771362,257.028870 
	C710.973816,254.631958 704.854919,253.024231 698.934631,250.907761 
	C695.668762,249.740219 692.306885,248.585114 689.372070,246.795181 
	C680.158997,241.176117 679.669800,228.713654 688.202576,221.969162 
	C698.994751,213.438782 717.935059,215.347687 727.479858,226.201172 
	C726.513245,227.358459 725.504150,228.566498 724.217712,230.106674 
	C718.450073,224.720627 711.895691,221.424301 704.001282,222.077118 
	C701.072754,222.319275 698.031738,222.891937 695.350220,224.036179 
	C691.267090,225.778458 688.859009,229.087906 688.676147,233.741623 
	C688.499451,238.237534 691.120422,240.921112 694.806580,242.557465 
	C698.433289,244.167435 702.274109,245.295135 706.406616,246.743256 
z"/>
<path fill="#219109" opacity="1.000000" stroke="none" 
	d="
M535.677979,234.240173 
	C536.039490,238.092453 536.039490,241.740601 536.039490,245.798676 
	C534.685730,245.887360 533.278687,245.929291 531.883240,246.079224 
	C523.862122,246.941193 521.218445,249.844467 521.218323,257.743958 
	C521.218140,266.038788 521.218262,274.333618 521.218262,282.922821 
	C516.938965,282.922821 512.893188,282.922821 508.634155,282.922821 
	C508.634155,266.991394 508.634155,251.263672 508.634155,235.259277 
	C512.732056,235.259277 516.655334,235.259277 520.872803,235.259277 
	C521.064270,236.691193 521.274292,238.261612 521.425049,239.388840 
	C526.082397,237.594223 530.699463,235.815125 535.677979,234.240173 
z"/>
<path fill="#898A89" opacity="1.000000" stroke="none" 
	d="
M842.428223,261.210266 
	C841.707703,262.885376 840.920288,264.629425 841.254578,266.122223 
	C843.992249,278.347412 857.487854,284.315491 869.241150,278.566895 
	C871.450256,277.486450 873.478638,276.036652 875.791870,274.635254 
	C877.813232,276.038605 879.537048,277.137268 876.426086,279.661957 
	C867.990112,286.508301 853.813171,287.361359 845.171875,281.278687 
	C835.539429,274.498413 831.810181,261.238312 836.259338,249.589645 
	C840.450195,238.617538 849.985962,232.829529 861.852539,234.055283 
	C873.868042,235.296448 882.049866,246.198288 881.537781,261.162781 
	C868.681152,261.162781 855.781250,261.162781 842.428223,261.210266 
M854.509033,256.996094 
	C861.613708,256.996094 868.718445,256.996094 875.806580,256.996094 
	C875.878723,246.624390 868.983398,238.901520 859.691528,238.388245 
	C849.331909,237.815964 841.525208,245.239258 840.657288,256.996094 
	C844.964478,256.996094 849.239868,256.996094 854.509033,256.996094 
z"/>
<path fill="#1E8F06" opacity="1.000000" stroke="none" 
	d="
M62.105225,257.444275 
	C59.644024,269.801727 57.226688,281.750244 54.756527,293.959900 
	C46.562378,293.959900 38.433212,294.194489 30.324276,293.890167 
	C23.049976,293.617157 19.166267,288.079529 19.712122,278.773560 
	C24.470444,280.872589 29.010077,282.875153 33.951931,285.055145 
	C43.304096,273.408142 52.727253,261.672760 62.150410,249.937347 
	C62.507416,250.032974 62.864426,250.128586 63.221432,250.224213 
	C62.863987,252.494583 62.506538,254.764938 62.105225,257.444275 
z"/>
<path fill="#8A8B8A" opacity="1.000000" stroke="none" 
	d="
M801.835144,243.262146 
	C807.737183,252.923981 808.501282,262.633636 803.702942,272.523804 
	C799.309448,281.579681 791.790527,285.489288 781.831238,285.144501 
	C772.127197,284.808502 765.612915,279.934601 761.786621,271.251892 
	C754.979309,255.804688 762.322327,238.182022 777.236328,234.628433 
	C786.948486,232.314270 795.304749,234.884811 801.835144,243.262146 
M790.835999,240.389664 
	C778.729675,235.794785 768.764587,241.106293 765.825684,253.625977 
	C764.309753,260.083588 765.258362,266.121094 768.414001,271.888458 
	C774.393372,282.816498 790.201599,283.566986 797.057922,273.153381 
	C804.305420,262.145569 801.018616,246.241806 790.835999,240.389664 
z"/>
<path fill="#8A8B8A" opacity="1.000000" stroke="none" 
	d="
M740.732666,235.935364 
	C741.513306,231.874756 741.861938,227.952316 742.253296,223.549194 
	C743.445068,223.415955 744.835388,223.260513 746.883301,223.031570 
	C746.883301,227.470016 746.883301,231.529266 746.883301,234.415878 
	C749.850708,238.412079 756.732788,232.500397 756.832336,240.624619 
	C753.625671,240.769669 750.685059,240.902679 747.014526,241.068710 
	C747.014526,248.038376 747.014587,254.964981 747.014587,261.891602 
	C747.014587,265.220215 747.007385,268.548859 747.015930,271.877441 
	C747.037537,280.280792 749.437378,281.994751 757.333557,279.119446 
	C760.134705,281.775635 759.186157,283.500946 755.973450,284.802521 
	C748.569397,287.802094 741.937805,283.530853 741.877930,275.553467 
	C741.793213,264.259491 741.856506,252.964355 741.856506,241.236572 
	C739.164612,240.996231 736.778076,240.783157 734.182861,240.551453 
	C732.922241,234.146317 737.864136,236.839325 740.732666,235.935364 
z"/>
<path fill="#878887" opacity="1.000000" stroke="none" 
	d="
M834.578186,235.445251 
	C834.977478,238.310059 834.479492,239.612610 831.408325,239.928192 
	C822.165955,240.877884 818.132568,245.702835 818.132507,255.006516 
	C818.132385,264.312134 818.132507,273.617737 818.132507,283.343231 
	C816.428345,283.459717 815.040039,283.554596 813.309937,283.672882 
	C813.309937,267.459167 813.309937,251.563644 813.309937,235.278198 
	C814.711609,235.208237 816.100769,235.138885 817.838196,235.052170 
	C817.999023,237.280319 818.138916,239.218903 818.324890,241.795212 
	C820.868286,239.922897 822.945740,237.724609 825.494995,236.697754 
	C828.263123,235.582779 831.470154,235.557587 834.578186,235.445251 
z"/>
<path fill="#1F9007" opacity="1.000000" stroke="none" 
	d="
M82.885284,292.884766 
	C90.105698,284.455597 97.113365,276.318542 104.121040,268.181519 
	C103.731453,275.795990 108.212013,284.138916 101.129959,290.518188 
	C95.743851,295.369812 89.159515,294.566345 82.885284,292.884766 
z"/>
<path fill="#3FA02B" opacity="1.000000" stroke="none" 
	d="
M23.225731,211.925293 
	C23.975147,213.026672 24.970739,214.465988 24.775217,215.719513 
	C23.224358,225.662064 21.446955,235.569275 19.309210,245.487534 
	C19.309210,236.847946 19.042835,228.195007 19.474878,219.577072 
	C19.601109,217.059189 21.716433,214.641022 23.225731,211.925293 
z"/>
<path fill="#FBFDFB" opacity="1.000000" stroke="none" 
	d="
M282.249268,270.432709 
	C281.748505,264.340790 280.758392,258.459869 281.620972,252.864532 
	C281.963928,250.639694 286.162842,248.219772 289.045410,247.358856 
	C293.495758,246.029663 297.941284,247.132339 301.156708,251.075897 
	C305.430817,256.317871 305.378784,265.560547 301.030670,270.456299 
	C296.726044,275.303070 289.782990,275.416199 282.249268,270.432709 
z"/>
<path fill="#FBFDFB" opacity="1.000000" stroke="none" 
	d="
M426.392975,262.308411 
	C429.627899,263.751770 433.383087,263.910004 433.483673,268.469635 
	C433.594482,273.491333 431.467590,275.639526 424.997040,276.453247 
	C419.683105,277.121490 415.039001,274.699249 414.192841,270.817993 
	C413.320160,266.815186 416.319092,262.893433 421.045471,262.142517 
	C422.649292,261.887695 424.338867,262.172668 426.392975,262.308411 
z"/>
<path fill="#FBFDFB" opacity="1.000000" stroke="none" 
	d="
M555.879639,275.666382 
	C552.158020,273.857513 550.441101,270.915680 552.003235,267.751465 
	C553.147522,265.433594 556.114319,262.493286 558.244629,262.512512 
	C562.238037,262.548584 566.856506,263.648132 570.012512,265.952332 
	C573.038940,268.161865 570.731995,274.160339 566.486816,275.291473 
	C563.252380,276.153259 559.675842,275.731110 555.879639,275.666382 
z"/>
<path fill="#FBFDFB" opacity="1.000000" stroke="none" 
	d="
M236.307602,244.202408 
	C244.804901,244.609848 248.403519,247.679977 248.962189,254.816406 
	C241.387756,254.816406 233.825546,254.816406 226.258270,254.816406 
	C226.616058,248.866669 228.876862,246.396469 236.307602,244.202408 
z"/>
<path fill="#FDFDFC" opacity="1.000000" stroke="none" 
	d="
M854.012207,256.996094 
	C849.239868,256.996094 844.964478,256.996094 840.657288,256.996094 
	C841.525208,245.239258 849.331909,237.815964 859.691528,238.388245 
	C868.983398,238.901520 875.878723,246.624390 875.806580,256.996094 
	C868.718445,256.996094 861.613708,256.996094 854.012207,256.996094 
z"/>
<path fill="#FDFEFD" opacity="1.000000" stroke="none" 
	d="
M791.158264,240.585602 
	C801.018616,246.241806 804.305420,262.145569 797.057922,273.153381 
	C790.201599,283.566986 774.393372,282.816498 768.414001,271.888458 
	C765.258362,266.121094 764.309753,260.083588 765.825684,253.625977 
	C768.764587,241.106293 778.729675,235.794785 791.158264,240.585602 
z"/>
</svg>